<svg xmlns="http://www.w3.org/2000/svg" viewBox="0 0 561 600">
    <defs>
        <style>.a{fill:#004b00;}</style>
    </defs>
    <title>safari-pinned-tab</title>
    <path class="a"
          d="M394.43,284.77C385.75,266,375,250.87,362.24,239c39.51-1.36,75.28-18.4,108.14-51.1-36.44-11.08-69.65-11.76-100-1.88C403,158.38,423,120.22,431.22,70.65c-46.67,16-80.73,41.39-102.52,76.82,10.38-48,1-96.07-28.44-145.47C271,51.23,261.43,99.44,271.82,147.47c-22-35.6-56-61-102.53-77,8.35,49.57,28.44,87.73,60.8,115.32-30.48-9.71-63.52-9-100,1.88,32.86,32.7,68.46,49.57,108,51.1-12.78,11.92-23.51,27.08-32.19,45.82,37.29-2.21,66.59-15,88.56-38.5a242.33,242.33,0,0,1-5.8,34.58h23a209.93,209.93,0,0,1-5.79-34.41C327.67,269.78,357,282.56,394.43,284.77Zm-81.74-52.12a73.67,73.67,0,0,1,41.89,24.7C338.57,251.72,324.27,244.74,312.69,232.65Zm110-33.9c-36.44,26.4-78.17,25.72-107.8,23.68C344.87,210.33,383.87,194.32,422.7,198.75Zm-23.84-90.63c-17.2,53.32-48.2,69.68-88.56,103.74C337.21,168.09,350,133.17,398.86,108.12ZM177.47,198.75c38.83-4.43,77.83,11.58,107.8,23.68C255.64,224.47,213.91,225.15,177.47,198.75Zm68.12,58.6a73.67,73.67,0,0,1,41.89-24.7c-11.58,12.09-25.88,19.07-41.89,24.7ZM201.31,108.12c48.88,25,61.65,60,88.56,103.74C249.51,177.8,218.51,161.44,201.31,108.12Zm98.78,99.32c-11.93-54.86-24-98.8,0-155C324.1,108.64,312,152.58,300.09,207.44Z"
          transform="translate(-19.5 -2)"/>
    <path d="M300.09,602C145,601.84,19.34,475.92,19.5,320.75A281.06,281.06,0,0,1,147.58,85.29a277.75,277.75,0,0,0,7.19,27.39,251.09,251.09,0,0,0-66.07,68l20.37,20.21H76.55A250.85,250.85,0,0,0,46.76,307.69h95a353.29,353.29,0,0,1,9.93-71.91A172.94,172.94,0,0,0,176,248.62a339.66,339.66,0,0,0-7.7,59.07H431.54a324.72,324.72,0,0,0-7.7-59.07,181.86,181.86,0,0,0,24.3-12.84,355.39,355.39,0,0,1,9.93,71.91h95.34a255.22,255.22,0,0,0-29.78-106.83h-32.7l20.37-20.21a255,255,0,0,0-31.83-39.2,240,240,0,0,0-34.24-28.77,237.2,237.2,0,0,0,7.19-27.39,290.33,290.33,0,0,1,45.87,37.15C608,232.2,607.9,410.09,498.17,519.77A280.82,280.82,0,0,1,300.09,602ZM202,57.73a287.69,287.69,0,0,1,52.72-14,217.33,217.33,0,0,0-9.07,40.06A228.44,228.44,0,0,0,202,57.73Zm143.43-14a274.46,274.46,0,0,1,52.72,14,215.37,215.37,0,0,0-43.64,26.19A216.49,216.49,0,0,0,345.44,43.69ZM507,468.11H427.26c-16.77,37.33-40.91,73.45-71.37,100.85a254.41,254.41,0,0,0,123.58-68.32A237.72,237.72,0,0,0,507,468.11Zm-109.2,0H313.44v99.82c35.6-20.55,66.41-63.35,84.38-99.82Zm-111.09,0H202.35c18.14,36.47,48.78,79.27,84.38,99.82V468.11Zm-113.82,0H93.15a237.79,237.79,0,0,0,27.56,32.53A254.32,254.32,0,0,0,244.29,569c-30.47-27.4-54.61-63.52-71.38-100.85Zm-96.36-26.7h85.58a354.6,354.6,0,0,1-20.37-107.18H46.59A254.56,254.56,0,0,0,76.55,441.41Zm114,0h96.19V334.23H168.46A334.12,334.12,0,0,0,190.54,441.41Zm122.9,0h96.19a329.2,329.2,0,0,0,22.08-107.18H313.44Zm124.6,0h85.59a254.55,254.55,0,0,0,30-107.18h-95A360.14,360.14,0,0,1,438,441.41Z"
          transform="translate(-19.5 -2)"/>
</svg>
